<svg xmlns="http://www.w3.org/2000/svg" viewBox="0 0 1000 560"><rect width="1000" height="560" rx="32" fill="#fffaf5"/><g font-family="Arial,sans-serif"><text x="500" y="62" font-size="34" font-weight="800" text-anchor="middle" fill="#111827">Listed protein and calories</text><path d="M110 450V110M110 450H930" stroke="#111827" stroke-width="4"/><g stroke="#d1d5db" stroke-width="2"><path d="M110 350H930M110 250H930M110 150H930"/></g><g fill="#166534"><circle cx="340" cy="200" r="18"/><circle cx="270" cy="300" r="18"/><circle cx="200" cy="330" r="18"/><circle cx="610" cy="180" r="18"/><circle cx="270" cy="200" r="18"/><circle cx="340" cy="270" r="18"/><circle cx="410" cy="260" r="18"/></g><g font-size="17" fill="#111827"><text x="356" y="194">Chicken</text><text x="286" y="296">BBQ beef</text><text x="216" y="326">Crispy</text><text x="626" y="175">Salmon</text><text x="286" y="218">Spicy</text><text x="356" y="287">Steak</text><text x="426" y="257">Tofu</text></g><text x="520" y="520" font-size="22" text-anchor="middle" fill="#374151">Calories increase from left to right</text><text x="38" y="280" font-size="22" text-anchor="middle" fill="#374151" transform="rotate(-90 38 280)">Protein increases upward</text></g></svg>
